<svg width="300" height="120" viewBox="0 0 300 120" fill="none" xmlns="http://www.w3.org/2000/svg">
<path d="M278.09 70.6709C278.287 70.5064 278.47 70.3637 278.498 70.3587C278.525 70.3504 278.646 70.2725 278.763 70.1815C279.209 69.8517 279.677 69.643 280.139 69.5731C280.284 69.5482 280.477 69.5162 280.568 69.495C280.733 69.4648 280.806 69.4977 280.905 69.6647C280.936 69.7116 281.079 69.7806 281.227 69.8109C281.473 69.869 281.525 69.8588 281.926 69.7113C282.162 69.6232 282.38 69.5277 282.41 69.5001C282.437 69.4756 282.487 69.4587 282.518 69.4636C282.549 69.4684 282.637 69.4374 282.719 69.3867C282.799 69.339 282.93 69.281 283.013 69.2627C283.096 69.2411 283.186 69.2037 283.213 69.1792C283.236 69.1578 283.301 69.132 283.355 69.1283C283.474 69.1151 283.531 69.2832 283.508 69.596C283.5 69.7154 283.487 69.9316 283.48 70.0672C283.471 70.2092 283.444 70.3502 283.421 70.3879C283.196 70.7323 282.518 71.4126 282.067 71.7517C281.873 71.897 281.696 72.0303 281.672 72.0517C281.609 72.1099 281.643 72.1538 281.739 72.149C281.787 72.1419 281.851 72.1419 281.88 72.1402C281.913 72.1387 281.953 72.1278 281.969 72.1125C282.029 72.0573 282.481 72.0258 282.549 72.0714C282.59 72.0962 282.69 72.1046 282.778 72.0865C282.879 72.0691 282.943 72.0853 282.955 72.1281C282.973 72.1905 282.962 72.2094 282.854 72.2879C282.745 72.3665 282.734 72.3853 282.753 72.451C282.823 72.691 282.548 73.2271 282.186 73.5547C281.986 73.7385 281.934 73.765 281.489 73.9199C280.794 74.1622 280.333 74.4102 280.301 74.5607C280.282 74.6406 280.075 74.8177 280.012 74.8047C279.936 74.791 279.917 74.8127 279.839 75.0094C279.773 75.1743 279.754 75.1959 279.551 75.357L279.331 75.5301L279.19 75.8724C279.112 76.0561 279.037 76.2206 279.024 76.2328C279.011 76.2451 278.985 76.3474 278.967 76.4598C278.95 76.5754 278.919 76.7 278.905 76.7381C278.886 76.776 278.876 76.8726 278.884 76.9443C278.924 77.3996 278.942 77.4912 278.996 77.5458C279.072 77.6177 279.354 78.0629 279.435 78.242C279.549 78.4875 279.549 78.8209 279.437 79.236C279.386 79.4373 279.326 79.6964 279.311 79.8057C279.292 79.9148 279.242 80.1485 279.196 80.3242C279.078 80.7778 278.983 81.2941 279.004 81.3664C279.038 81.4814 279.244 81.6087 279.408 81.6205C279.644 81.6328 279.959 81.6103 280.03 81.5783C280.063 81.5606 280.166 81.5369 280.255 81.522C280.345 81.5105 280.573 81.4511 280.767 81.39C280.957 81.3319 281.124 81.2823 281.138 81.2863C281.151 81.2869 281.211 81.2738 281.272 81.2511C281.429 81.1945 281.711 81.248 281.875 81.3634C282 81.4573 282.024 81.4974 282.126 81.8621C282.223 82.1941 282.236 82.2822 282.203 82.4164C282.15 82.6694 281.982 83.224 281.955 83.2485C281.938 83.2638 281.934 83.2927 281.942 83.319C281.949 83.3453 281.944 83.3839 281.932 83.4027C281.882 83.4778 281.788 84.0265 281.777 84.2947C281.773 84.3398 281.761 84.3845 281.748 84.3967C281.738 84.4059 281.668 84.5577 281.599 84.7289C281.442 85.1319 281.35 85.3246 281.22 85.5315C281.162 85.6257 281.116 85.7139 281.121 85.7304C281.125 85.7435 281.092 85.7904 281.049 85.8302C281.002 85.8731 280.918 85.9918 280.86 86.0988C280.768 86.2624 280.698 86.3397 280.34 86.6805C280.036 86.9722 279.906 87.0788 279.853 87.0857C279.772 87.0977 279.615 86.8338 279.631 86.7148C279.647 86.625 279.671 86.2119 279.673 86.0307C279.672 85.9238 279.691 85.8892 279.795 85.7813C279.86 85.7134 279.912 85.6449 279.907 85.6284C279.894 85.5824 280.128 85.2255 280.2 85.1807C280.247 85.154 280.266 85.1194 280.258 85.0898C280.238 85.0208 280.368 84.6261 280.465 84.4661C280.508 84.3938 280.538 84.308 280.528 84.2751C280.501 84.183 280.604 83.8225 280.674 83.7582C280.714 83.7214 280.738 83.6612 280.737 83.5996C280.733 83.4408 280.684 83.4026 280.573 83.4713C280.515 83.5039 280.417 83.5312 280.354 83.5311C280.204 83.5266 279.964 83.6177 279.854 83.7189C279.804 83.7648 279.754 83.7946 279.743 83.7875C279.733 83.7805 279.596 83.8479 279.436 83.94C279.116 84.1305 278.814 84.2864 278.268 84.5461C278.07 84.6362 277.867 84.7519 277.823 84.7918C277.777 84.8347 277.737 84.8585 277.732 84.8421C277.729 84.8289 277.623 84.859 277.494 84.9106C277.369 84.9591 277.251 84.9886 277.234 84.9748C277.193 84.9371 277.106 85.0167 277.124 85.0759C277.144 85.1449 277.263 85.2644 277.452 85.4037C277.548 85.4735 277.649 85.5597 277.676 85.5935C277.702 85.6239 277.752 85.6492 277.783 85.654C277.816 85.6525 277.849 85.6802 277.859 85.713C277.868 85.7426 277.893 85.7698 277.914 85.7709C277.933 85.7784 278.044 85.8554 278.156 85.9486C278.33 86.0969 278.369 86.1572 278.431 86.3708C278.489 86.5681 278.495 86.6623 278.467 86.813C278.447 86.9188 278.416 87.0305 278.4 87.062C278.384 87.0935 278.346 87.2243 278.316 87.3555C278.289 87.4804 278.237 87.6201 278.2 87.6667C278.162 87.7133 278.055 87.8664 277.958 88.0135C277.828 88.2075 277.69 88.3719 277.444 88.6181C277.261 88.8029 277.115 88.9668 277.118 88.98C277.122 88.9931 277.035 89.0986 276.921 89.2157C276.809 89.3265 276.58 89.5866 276.408 89.7945C276.239 89.9994 275.987 90.2809 275.849 90.4162C275.711 90.5514 275.56 90.7152 275.515 90.7809C275.468 90.8496 275.396 90.9365 275.349 90.9794C275.306 91.0192 275.273 91.0661 275.278 91.0858C275.284 91.1055 275.134 91.2596 274.894 91.4803L274.503 91.8354L274.406 91.7657C274.282 91.6718 274.21 91.4123 274.232 91.1091C274.25 90.8219 274.359 90.4715 274.459 90.3796C274.496 90.3459 274.56 90.2618 274.6 90.1926C274.643 90.1237 274.717 90.0304 274.77 89.9781C274.82 89.9321 274.865 89.8697 274.866 89.8439C274.868 89.7793 275.016 89.6477 275.054 89.6756C275.08 89.6931 275.087 89.687 275.094 89.6388C275.102 89.5648 275.182 89.4912 275.214 89.5285C275.233 89.5489 275.252 89.5272 275.284 89.4479C275.335 89.3049 275.551 89.0313 275.669 88.9565C275.822 88.8576 275.965 88.797 275.974 88.8266C275.979 88.8431 276.043 88.8011 276.116 88.7336C276.19 88.6662 276.246 88.5979 276.242 88.5848C276.237 88.5684 276.31 88.4556 276.401 88.3308C276.492 88.2093 276.564 88.0933 276.559 88.0768C276.554 88.0571 276.323 87.9318 276.041 87.7941C275.76 87.6565 275.462 87.5051 275.385 87.4557C275.302 87.4061 275.182 87.3707 275.116 87.377C275.001 87.3872 274.983 87.3992 274.419 87.9171C274.102 88.2081 273.831 88.4401 273.82 88.4298C273.777 88.3855 272.345 89.4086 271.977 89.7423C271.864 89.8465 271.766 89.9192 271.761 89.8994C271.755 89.8797 271.654 89.9554 271.524 90.0749C271.381 90.2067 271.198 90.3364 271.01 90.4431C270.849 90.5319 270.682 90.6398 270.635 90.6827C270.588 90.7256 270.502 90.7761 270.444 90.7958C270.383 90.8185 270.215 90.9231 270.069 91.032C269.923 91.141 269.715 91.2985 269.61 91.374C269.505 91.4495 269.361 91.565 269.291 91.6294L269.166 91.7395L269.214 91.9038C269.279 92.1274 269.186 93.2297 269.076 93.551C269.051 93.6242 269.011 93.8195 268.988 93.9867C268.962 94.1602 268.872 94.4922 268.789 94.7274C268.705 94.9626 268.642 95.1665 268.645 95.1797C268.65 95.1961 268.634 95.2277 268.611 95.2491C268.571 95.2859 268.382 95.7261 268.392 95.7622C268.406 95.8082 268.26 96.2377 268.216 96.2776C268.193 96.299 268.178 96.3338 268.184 96.3535C268.189 96.3733 268.147 96.5038 268.089 96.64C268.032 96.7762 267.964 96.9346 267.943 96.995C267.922 97.0522 267.875 97.1371 267.841 97.1807C267.783 97.2586 267.437 98.1471 267.374 98.3802C267.355 98.4472 267.339 98.5791 267.335 98.6825C267.333 98.7795 267.324 98.8761 267.316 98.8952C267.309 98.9143 267.299 99.04 267.3 99.1728C267.294 99.4153 267.352 99.5834 267.43 99.5615C267.451 99.5594 267.478 99.5964 267.495 99.6523C267.51 99.7049 267.536 99.7354 267.556 99.717C267.572 99.7017 267.594 99.7028 267.6 99.7225C267.611 99.762 267.898 99.8772 267.942 99.8536C267.958 99.8479 267.976 99.8521 267.98 99.8686C267.991 99.9047 268.825 99.9513 268.952 99.9223C269.027 99.9035 269.153 99.8129 269.423 99.5777C269.626 99.4037 269.794 99.27 269.798 99.2831C269.803 99.2996 269.865 99.2672 269.939 99.216C270.033 99.1464 270.144 99.1198 270.334 99.12C270.562 99.1189 270.6 99.1338 270.631 99.239C270.655 99.3212 270.683 99.3453 270.713 99.3177C270.77 99.2657 270.987 99.2996 271.006 99.3653C271.014 99.3916 270.997 99.449 270.966 99.4895C270.94 99.5303 270.904 99.6093 270.889 99.6603C270.875 99.7147 270.802 99.8274 270.725 99.9108C270.314 100.372 268.606 101.827 268.401 101.894C268.185 101.964 268.105 101.937 268.081 101.784C268.065 101.657 268.043 101.636 267.915 101.62C267.836 101.609 267.757 101.615 267.741 101.63C267.72 101.649 267.686 101.631 267.662 101.594C267.635 101.56 267.395 101.518 267.124 101.504C266.853 101.487 266.625 101.459 266.619 101.439C266.613 101.419 266.527 101.399 266.426 101.4C266.328 101.398 266.194 101.359 266.129 101.31C266.06 101.261 265.993 101.235 265.973 101.253C265.956 101.269 265.933 101.261 265.925 101.235C265.905 101.166 265.594 100.968 265.499 100.963C265.424 100.966 265.408 100.926 265.33 100.602L265.245 100.235L265.357 99.9524C265.418 99.7969 265.466 99.657 265.46 99.6372C265.455 99.6208 265.493 99.49 265.546 99.3503C265.597 99.2073 265.635 99.0765 265.63 99.0601C265.625 99.0437 265.658 98.9385 265.701 98.8242C265.789 98.6022 265.843 98.1938 265.804 98.0591C265.791 98.013 265.802 97.923 265.826 97.8595C265.853 97.7929 265.877 97.6258 265.882 97.4836C265.889 97.2606 265.871 97.1852 265.756 96.8911C265.627 96.5639 265.481 96.3685 265.365 96.3625C265.335 96.3609 265.302 96.3366 265.296 96.3136C265.283 96.2708 265.109 96.1808 264.998 96.1621C264.975 96.1544 264.948 96.1369 264.943 96.1172C264.937 96.0974 264.902 96.0794 264.868 96.0776C264.832 96.0726 264.793 96.0381 264.78 95.9954C264.768 95.9527 264.683 95.8641 264.594 95.7915C264.502 95.7219 264.424 95.6434 264.416 95.6171C264.409 95.5908 264.377 95.5827 264.347 95.5974C264.317 95.6087 264.286 95.6039 264.278 95.5776C264.27 95.5513 264.211 95.5094 264.148 95.4802C264.089 95.4512 264.016 95.4053 263.991 95.3782C263.966 95.3477 263.917 95.3257 263.886 95.3209C263.774 95.3151 263.551 94.7078 263.412 94.0434C263.342 93.716 263.297 93.4287 263.311 93.4036C263.325 93.3784 263.324 93.2748 263.311 93.1705C263.285 93.0105 263.269 92.9838 263.191 92.9927C263.145 92.9935 263.098 92.9781 263.092 92.9584C263.086 92.9354 263.019 92.9255 262.941 92.9344C262.864 92.9433 262.71 92.9515 262.596 92.9553C262.487 92.9561 262.374 92.9761 262.351 92.9976C262.331 93.016 262.307 93.0212 262.302 93.0048C262.294 92.9785 261.876 93.0085 261.656 93.0521C261.608 93.0626 261.481 93.0463 261.372 93.0212C261.154 92.9677 261.033 92.9615 260.649 92.9771C260.503 92.9857 260.305 92.9884 260.206 92.9833C260.104 92.9812 259.996 92.9885 259.965 92.9966C259.93 93.0078 259.84 93.0031 259.766 92.9831C259.549 92.9329 259.045 92.9618 258.852 93.0392C258.753 93.0761 258.648 93.1062 258.618 93.1047C258.587 93.1031 258.538 93.1232 258.512 93.1477C258.465 93.1906 258.128 93.3123 257.789 93.4113C257.618 93.4639 257.475 93.4241 257.444 93.3156C257.434 93.2828 257.463 93.2357 257.536 93.1683C257.596 93.1131 257.721 92.961 257.815 92.8331C257.987 92.596 258.204 92.4098 258.404 92.3263C258.445 92.309 258.581 92.2254 258.708 92.1382C258.933 91.9815 259.369 91.7775 259.49 91.7708C259.523 91.7693 259.606 91.7348 259.669 91.7024C259.797 91.6346 260.057 91.5834 260.144 91.6074C260.175 91.6122 260.307 91.6288 260.441 91.639C260.576 91.6525 260.69 91.681 260.698 91.7073C260.705 91.7336 260.731 91.735 260.755 91.7135C260.778 91.6921 260.867 91.6773 260.949 91.6848C261.088 91.6952 261.536 91.6214 261.586 91.5754C261.616 91.5478 261.771 91.5721 261.871 91.6129C261.92 91.6349 261.978 91.6314 262.002 91.61C262.028 91.5855 262.113 91.5704 262.193 91.5681C262.383 91.5683 262.451 91.5556 262.648 91.4752C262.887 91.3808 263.535 90.9936 263.686 90.8558C263.928 90.6288 264.343 90.0935 264.701 89.5488C265.448 88.3962 266.286 87.3391 267.188 86.3985C267.701 85.8651 269.168 84.5266 269.912 83.9145C270.731 83.2416 270.977 82.9953 271.226 82.6004C271.452 82.243 271.696 81.919 271.829 81.7965C271.939 81.6953 272.383 81.0676 272.446 80.922C272.563 80.6561 272.721 80.428 272.963 80.1719C273.374 79.7368 273.501 79.5783 273.617 79.3512C273.687 79.2156 273.798 79.0595 273.943 78.9019C274.091 78.7413 274.217 78.5633 274.334 78.3557C274.547 77.9848 274.818 77.2737 274.885 76.921C274.93 76.6708 274.999 76.4705 275.381 75.4284L275.545 74.9773L275.365 75.0132C275.238 75.039 275.145 75.086 275.052 75.1718C274.848 75.3587 274.805 75.3694 274.765 75.2313C274.746 75.1656 274.739 75.0843 274.75 75.0492C274.773 74.9824 274.742 74.5729 274.701 74.4316C274.684 74.3724 274.691 74.2789 274.715 74.2187C274.761 74.1013 275.02 73.7845 275.207 73.6129C275.277 73.5486 275.327 73.4735 275.344 73.4128C275.393 73.2212 275.485 73.0996 275.771 72.862C275.921 72.737 276.074 72.6252 276.117 72.6112C276.22 72.5745 276.293 72.5038 276.508 72.2107C276.735 71.902 276.918 71.7302 277.07 71.6734C277.17 71.6397 277.197 71.6152 277.262 71.502C277.37 71.3231 277.661 71.0307 278.09 70.6709L278.09 70.6709ZM273.27 82.4605C273.311 82.4853 273.318 82.4792 273.309 82.4334C273.293 82.3775 273.245 82.3589 273.225 82.4064C273.221 82.4224 273.241 82.4461 273.27 82.4606L273.27 82.4605Z" fill="#01591F" stroke="#01591F" stroke-width="0.0833296"/>
<path d="M32.0474 46.2706C27.8854 41.5459 25.0933 36.1267 24.3421 30.0575C24.1943 28.8633 24.263 26.5416 24.4268 24.5796C24.9314 18.5319 26.302 14.9762 29.361 12.7889C33.4988 9.83041 36.8569 10.4377 47.6384 18.8466C50.2243 20.8636 52.3236 23.0991 52.5952 23.1644C52.8668 23.2298 53.6466 24.4382 54.3281 25.8496C55.0096 27.2612 55.896 28.8514 56.2978 29.3832C57.3413 30.7645 56.998 31.6109 55.6788 30.9096C54.0049 30.0196 53.6179 30.2613 54.2952 31.7727L54.8588 33.0303L54.0343 32.9245C52.5082 32.7285 51.1058 31.6516 49.1742 29.1916C46.6186 25.9371 40.2429 20.1194 38.1918 19.1706C35.2764 17.8219 32.0941 19.0016 30.4413 21.5786C29.0801 23.7012 28.8753 28.6932 29.872 32.6684C30.6622 35.8204 38.2876 42.289 40.3715 44.2457L43.7011 48.2954L41.2039 53.0201L36.4736 49.3916C36.7925 49.7554 35.8623 48.9089 36.4736 49.3916L32.0474 46.2706Z" fill="#01591F"/>
<path d="M36.4736 49.3916L41.2039 53.0201L43.7011 48.2954L40.3715 44.2457C38.2876 42.289 30.6622 35.8204 29.872 32.6684C28.8753 28.6932 29.0801 23.7012 30.4413 21.5786C32.0941 19.0016 35.2764 17.8219 38.1918 19.1706C40.2429 20.1194 46.6186 25.9371 49.1742 29.1916C51.1058 31.6516 52.5082 32.7285 54.0343 32.9245L54.8588 33.0303L54.2952 31.7727C53.6179 30.2613 54.0049 30.0196 55.6788 30.9096C56.998 31.6109 57.3413 30.7645 56.2978 29.3832C55.896 28.8514 55.0096 27.2612 54.3281 25.8496C53.6466 24.4382 52.8668 23.2298 52.5952 23.1644C52.3236 23.0991 50.2243 20.8636 47.6384 18.8466C36.8569 10.4377 33.4988 9.83041 29.361 12.7889C26.302 14.9762 24.9314 18.5319 24.4268 24.5796C24.263 26.5416 24.1943 28.8633 24.3421 30.0575C25.0933 36.1267 27.8854 41.5459 32.0474 46.2706L36.4736 49.3916ZM36.4736 49.3916C35.8623 48.9089 36.7925 49.7554 36.4736 49.3916Z" stroke="#01591F" stroke-width="0.0761485"/>
<path d="M9.42811 98.3066C9.654 98.3656 10.0529 99.4502 10.2844 99.9458C10.5177 100.445 11.2054 101.154 11.4871 101.403C13.1739 102.897 15.2053 104.166 19.2194 104.958C22.1529 105.536 24.3214 106.495 26.0576 105.335C26.7461 104.875 28.3016 103.641 28.7178 102.292C28.9838 100.66 29.134 100.66 28.7 97.5669C28.4849 96.784 27.982 94.7652 27.6763 93.942C26.0523 89.5678 24.6714 87.9155 23.3072 86.0927C22.6472 85.2108 22.4484 81.2982 23.3072 79.3432C24.4904 76.6494 26.1861 81.2668 28.7 85.7786C29.5528 87.3092 31.8713 93.0574 32.2112 94.75C32.8798 97.5669 32.8799 97.986 32.8798 100.942C32.8798 102.292 32.916 103.049 32.2112 104.549C31.7916 105.442 29.7709 106.939 28.9838 107.434C26.1843 109.194 20.8243 109.905 13.9383 105.995C13.0094 105.468 11.4088 104.677 10.3702 103.347C8.12277 100.468 7.49439 95.0986 8.44901 95.3474L9.42811 98.3066Z" fill="#01591F" stroke="#01591F" stroke-width="0.104089"/>
<path d="M51.8467 26.021C51.9727 26.0526 52.0984 25.831 52.1275 25.526C52.1565 25.2211 52.0779 24.9483 51.9519 24.9167C51.8259 24.8851 51.7002 25.1067 51.6712 25.4117C51.6421 25.7166 51.7207 25.9894 51.8467 26.021Z" fill="white" stroke="#01591F" stroke-width="2.12053"/>
<path d="M22.1969 83.9329C20.029 79.3968 19.6024 74.5666 20.8601 68.8008C21.4068 66.2944 23.1054 62.8362 24.4522 61.4873C26.4449 59.4918 30.9314 60.4897 33.8023 63.267C34.8195 64.251 36.37 65.2757 37.6593 65.0487C38.9767 64.8167 40.2345 63.9769 40.3715 63.8193C41.0639 63.0231 41.8476 61.1021 42.0363 60.4446C42.2503 59.6984 42.4491 58.406 42.4525 57.0698C42.4536 56.6266 42.1711 55.2637 41.6201 54.37C41.2039 53.695 39.5391 52.3451 38.7067 51.6702C38.5247 51.4783 37.2344 50.5158 37.0419 50.3203C34.9609 48.2954 32.8799 46.9455 32.0475 46.2706C31.911 46.1072 27.4692 40.871 27.4692 39.1354L30.7988 34.7964L35.2151 39.1354L42.8687 46.9455C45.7821 49.6453 47.1371 55.4426 46.1983 61.1195C45.025 68.2143 39.0467 71.7242 35.3157 70.7396C34.5149 70.5284 33.7397 70.0837 32.2354 68.7355C30.3813 67.0737 28.7724 66.6638 27.9189 66.6488C25.8944 66.6132 23.8581 69.6971 23.6059 73.1807C23.4039 75.9698 24.6864 77.8195 26.2206 81.3681C26.3257 81.611 27.9398 85.8317 27.4692 87.4426L24.1599 87.0798L23.5768 86.3394C23.256 85.9322 22.6349 84.8494 22.1969 83.9329Z" fill="#01591F" stroke="#01591F" stroke-width="0.0628132"/>
<path d="M0 16.6497C0.197146 13.7787 0.624415 11.3107 1.28251 9.24576C1.93989 7.17916 2.70743 6.14748 3.58442 6.14748C5.40434 6.14748 6.65386 11.1334 7.3337 21.1085C7.96934 30.8305 12.1459 55.8424 19.8634 96.1426C20.6968 92.8686 21.5956 89.5173 22.5603 86.0918C26.9234 70.4263 30.0476 58.412 31.9328 50.0489C39.5408 17.3558 44.5614 1.0084 46.9952 1.0084C48.6614 1.0084 49.4949 3.17495 49.4949 7.50641C49.4949 8.26244 49.4121 8.92981 49.248 9.51013C49.0838 10.0888 48.3549 12.5198 47.0611 16.8013C42.7639 31.0578 38.6421 45.9189 34.6956 61.3829C31.582 73.5245 29.0058 83.2466 26.9669 90.5506C24.6868 98.6606 23.3383 104.53 22.9223 108.157C22.6592 110.172 22.0229 111.81 21.0147 113.069C20.0058 114.328 18.8005 114.958 17.3973 114.958C16.8051 114.958 15.4784 108.484 13.4179 95.5381C12.4967 89.8961 9.41672 71.8368 4.17656 41.3586C1.39195 25.1885 0 16.9528 0 16.6497Z" fill="#01591F"/>
<path d="M87.8788 67.1346C87.8788 69.4947 85.8281 72.3413 81.7261 75.6737C77.6248 79.0061 73.3919 80.6723 69.0288 80.6723C65.3704 80.6723 62.5467 79.5733 60.5586 77.3747C58.5705 75.176 57.5758 72.1102 57.5758 68.1758C57.5758 61.5576 59.7689 55.2631 64.1545 49.2921C68.5402 43.322 73.3352 40.3361 78.5389 40.3361C80.2434 40.3361 81.6352 40.9034 82.7151 42.0371C83.7942 43.1716 84.3338 44.5364 84.3338 46.1338C84.3338 49.6972 82.6184 53.1103 79.1868 56.3739C75.7552 59.6367 71.1653 62.8417 65.4162 65.989C64.2346 66.614 63.6433 67.4241 63.6433 68.4187C63.6433 70.3396 64.1887 71.8784 65.2795 73.0359C66.3703 74.1926 67.9839 74.771 70.1196 74.771C75.0055 74.771 79.9933 72.0177 85.0835 66.5096C85.834 65.7461 86.4019 65.364 86.788 65.364C87.5152 65.364 87.8788 65.9542 87.8788 67.1346ZM64.1887 61.7191C73.8239 55.8873 78.6414 51.2013 78.6414 47.6608C78.6414 46.2723 78.0277 45.5784 76.8009 45.5784C74.7103 45.5784 72.3528 47.1402 69.7277 50.2645C67.1033 53.388 65.257 57.207 64.1887 61.7191Z" fill="#01591F"/>
<path d="M103.585 23.7049C105.764 23.4169 107.816 23.0747 109.741 22.6785C111.645 22.3191 113.231 22.1382 114.501 22.1382C116.108 22.1382 117.124 22.3905 117.547 22.895C117.97 23.3984 118.182 24.2808 118.182 25.5399C118.182 28.4567 116.986 30.0406 114.596 30.2917C111.529 30.6166 108.705 31.0658 106.124 31.6418C103.543 32.2178 102.152 32.6947 101.951 33.0737C101.75 33.4515 101.111 37.7345 100.032 45.9248C98.9525 54.1141 98.4137 59.4326 98.4137 61.8805C98.4137 65.8409 98.7203 68.4777 99.3336 69.7921C99.9469 71.1053 100.868 71.762 102.094 71.762C103.914 71.762 106.441 69.4408 109.678 64.7973C110.926 62.8885 111.888 61.9347 112.565 61.9347C113.475 61.9347 113.929 62.7629 113.929 64.4183C113.929 67.0102 112.465 70.3681 109.535 74.4898C106.605 78.6115 103.606 80.6723 100.539 80.6723C95.4204 80.6723 92.8602 75.5427 92.8602 65.2822C92.8602 61.5752 93.3896 55.8328 94.4469 48.0571C95.4833 40.3183 96.0018 35.6736 96.0018 34.1265C96.0018 33.5863 95.748 33.3156 95.2403 33.3156L91.9403 33.8017C89.2326 33.8017 87.8788 31.9667 87.8788 28.2942C87.8788 26.2069 88.5029 25.1621 89.7512 25.1621H96.2875C96.7315 25.1621 97.1228 24.8199 97.4613 24.1368C97.7997 23.4526 98.2973 21.1579 98.9525 17.2516C99.6085 13.3465 100.191 9.48517 100.698 5.66876C101.206 1.88921 102.2 0 103.681 0C104.591 0 105.299 0.53912 105.806 1.61965C106.314 2.69903 106.568 3.70699 106.568 4.64352C106.568 5.14692 106.187 7.72154 105.426 12.3651L103.585 23.7049Z" fill="#01591F"/>
<path d="M123.429 64.2417C123.64 63.8087 123.895 63.2063 124.192 62.4359C125.633 58.6803 126.958 55.7375 128.166 53.6074C129.375 51.4765 130.705 49.4358 132.157 47.486C133.609 45.5362 134.934 44.0555 136.132 43.0448C137.329 42.0333 138.416 41.3291 139.391 40.9316C140.366 40.5349 141.309 40.3361 142.221 40.3361C144.065 40.3361 145.57 40.9678 146.736 42.232C147.902 43.4962 148.485 44.9707 148.485 46.6555C148.485 47.402 148.279 48.0761 147.865 48.6778C147.452 49.2794 146.821 49.5807 145.973 49.5807C145.083 49.5807 144.267 49.1354 143.525 48.2448C142.762 47.3535 141.967 46.9082 141.14 46.9082C138.935 46.9082 135.883 49.942 131.982 56.0087C128.082 62.0754 125.707 68.7561 124.859 76.05C124.648 77.9282 124.245 79.1677 123.651 79.7694C123.058 80.3718 122.221 80.6723 121.139 80.6723C120.101 80.6723 119.348 79.794 118.882 78.036C118.415 76.2788 118.182 73.3175 118.182 69.1528C118.182 68.0211 118.235 65.5298 118.341 61.6779C118.468 57.128 118.722 53.4564 119.104 50.6638C119.168 50.2062 119.274 49.1354 119.423 47.4498C119.57 45.5963 119.756 44.3082 119.979 43.5863C120.201 42.8637 120.657 42.1897 121.346 41.5641C122.035 40.9378 122.782 40.625 123.588 40.625C124.372 40.625 124.961 40.9077 125.353 41.474C125.745 42.0394 125.941 42.6473 125.941 43.2975C125.941 44.2358 125.728 45.5601 125.304 47.2695C124.817 49.1716 124.531 50.4835 124.446 51.2054C124.383 52.0243 124.266 52.8786 124.096 53.7692C123.885 54.8046 123.672 57.5248 123.461 61.9306L123.429 63.2672V64.2417Z" fill="#01591F"/>
<path d="M178.788 67.1346C178.788 69.4947 176.737 72.3413 172.636 75.6737C168.534 79.0061 164.301 80.6723 159.938 80.6723C156.279 80.6723 153.456 79.5733 151.467 77.3747C149.479 75.176 148.485 72.1102 148.485 68.1758C148.485 61.5576 150.677 55.2631 155.063 49.2921C159.45 43.322 164.244 40.3361 169.448 40.3361C171.152 40.3361 172.545 40.9034 173.624 42.0371C174.703 43.1716 175.243 44.5364 175.243 46.1338C175.243 49.6972 173.527 53.1103 170.096 56.3739C166.665 59.6367 162.074 62.8417 156.325 65.989C155.143 66.614 154.552 67.4241 154.552 68.4187C154.552 70.3396 155.097 71.8784 156.188 73.0359C157.279 74.1926 158.892 74.771 161.029 74.771C165.914 74.771 170.903 72.0177 175.993 66.5096C176.743 65.7461 177.311 65.364 177.697 65.364C178.424 65.364 178.788 65.9542 178.788 67.1346ZM155.097 61.7191C164.733 55.8873 169.55 51.2013 169.55 47.6608C169.55 46.2723 168.937 45.5784 167.71 45.5784C165.619 45.5784 163.261 47.1402 160.637 50.2645C158.012 53.388 156.165 57.207 155.097 61.7191Z" fill="#01591F"/>
<path d="M184.471 64.5374C190.967 42.739 196.319 31.8402 200.526 31.8402C201.644 31.8402 202.552 32.9987 203.25 35.3147C203.949 37.6307 204.516 42.7714 204.953 50.7348C205.389 59.2068 206.376 65.3304 207.913 69.1065C208.698 71.0417 209.091 72.4703 209.091 73.3902C209.091 74.2146 208.829 74.9762 208.305 75.6747C207.782 76.3723 207.223 76.7215 206.629 76.7215C205.267 76.7215 204.062 75.3336 203.015 72.5576C201.967 69.7807 201.295 64.9019 200.998 57.9214C200.701 51.3217 200.387 47.0064 200.055 44.9758C199.724 42.9451 199.173 41.9297 198.405 41.9297C196.572 41.9297 192.879 50.6404 187.326 68.0596C185.667 73.2633 184.445 76.6657 183.66 78.2689C182.873 79.8712 182.158 80.6723 181.512 80.6723C180.743 80.6723 180.098 80.259 179.573 79.4345C179.05 78.6091 178.788 77.5937 178.788 76.3885C178.788 75.5001 178.928 73.7862 179.207 71.2478C181.355 51.1003 183.048 31.1742 184.288 11.4693C184.568 6.86882 185.017 3.80755 185.637 2.28453C186.257 0.761509 186.776 0 187.195 0C187.946 0 188.627 0.554378 189.238 1.66517C189.849 2.77595 190.155 4.31523 190.155 6.28196C190.155 12.1202 189.369 20.1323 187.798 30.3172C187.029 35.3625 186.218 41.7713 185.362 49.5448C184.506 57.3193 184.079 62.126 184.079 63.9668C184.079 64.3475 184.175 64.5374 184.366 64.5374H184.471Z" fill="#01591F"/>
<path d="M230.392 66.1597C227.62 70.6178 224.877 73.9612 222.163 76.1906C219.449 78.4193 216.964 79.534 214.706 79.534C213.181 79.534 211.864 78.7631 210.755 77.2219C209.645 75.6807 209.091 73.701 209.091 71.2818C209.091 65.045 211.418 58.3287 216.073 51.1312C220.727 43.9345 225.352 40.3361 229.947 40.3361C231.61 40.3361 232.848 41.4744 233.66 43.7509C233.917 44.5097 234.324 44.8891 234.878 44.8891C236.463 44.8891 237.255 45.6244 237.255 47.0942C237.255 47.8295 237.156 48.8373 236.958 50.1174C235.888 57.113 235.354 62.0454 235.354 64.9145C235.354 70.6535 236.264 74.0917 238.086 75.23C238.958 75.7991 239.394 76.4987 239.394 77.3289C239.394 78.0642 238.968 78.8048 238.116 79.5523C237.265 80.2989 236.443 80.6723 235.651 80.6723C234.125 80.6723 232.868 79.4157 231.878 76.9017C230.887 74.3884 230.392 70.8075 230.392 66.1597ZM228.58 46.1336C225.965 46.1336 222.926 49.0687 219.46 54.9375C215.993 60.8062 214.261 65.6733 214.261 69.5388C214.261 72.266 215.013 73.6296 216.518 73.6296C218.697 73.6296 221.717 70.9972 225.579 65.7333C229.442 60.4685 231.373 55.631 231.373 51.2207C231.373 47.8295 230.442 46.1336 228.58 46.1336Z" fill="#01591F"/>
<path d="M250.396 78.4228C255.584 68.1851 261.784 59.8933 268.998 53.5443C276.211 47.1968 282.716 44.0223 288.511 44.0223C291.712 44.0223 294.428 45.6264 296.657 48.8332C298.886 52.04 300 55.9498 300 60.5639C300 74.2262 295.248 87.045 285.745 99.0161C276.242 110.989 266.201 116.975 255.624 116.975C252.746 116.975 250.102 116.128 247.691 114.437C245.28 112.746 243.933 110.626 243.649 108.077C243.487 106.013 242.939 104.475 242.007 103.464C240.264 101.575 239.394 99.5545 239.394 97.4021C239.394 93.4038 240.407 84.8589 242.432 71.7659L248.694 32.3577C250.842 19.134 252.413 10.9616 253.405 7.84339C254.398 4.72375 255.502 2.63602 256.718 1.58161C257.933 0.527205 259.434 0 261.217 0C264.053 0 265.472 2.65851 265.472 7.97414C265.472 13.0269 263.912 20.0999 260.792 29.1945C257.792 37.9377 254.327 54.3471 250.396 78.4228ZM248.937 100.367C251.045 104.628 253.598 106.76 256.596 106.76C261.217 106.76 266.1 104.683 271.247 100.532C276.394 96.38 280.842 90.5372 284.59 83.0031C288.339 75.4676 290.213 69.1088 290.213 63.9239C290.213 61.5958 289.828 59.5966 289.057 57.9278C288.288 56.2577 287.316 55.4226 286.139 55.4226C280.507 55.4226 273.628 60.4205 265.502 70.4149C257.377 80.4107 251.855 90.3938 248.937 100.367Z" fill="#01591F"/>
<path d="M73.7374 103.445V91.9321H76.9082C78.6522 91.9321 80.4232 92.3069 80.8438 92.7651C81.423 93.396 81.877 93.3553 82.7153 92.5975C84.2104 91.2459 91.4982 91.2647 93.8383 92.6262C99.3477 95.8316 98.4097 105.907 92.4336 107.714C88.9926 108.755 86.0048 108.673 83.3487 107.464C82.1183 106.904 80.9388 106.634 80.7275 106.864C80.5162 107.094 80.3433 109.01 80.3433 111.12V114.958H77.0404H73.7374V103.445ZM89.0962 102.583C89.7321 101.782 90.2523 100.455 90.2523 99.634C90.2523 97.5339 87.6936 94.8103 85.7207 94.8103C83.7296 94.8103 81.0039 97.405 81.0039 99.3004C81.0039 104.198 86.1554 106.288 89.0962 102.583ZM151.494 113.511C151.305 112.724 150.595 112.08 149.915 112.08C147.94 112.08 145.742 109.996 145.742 108.122C145.742 105.714 148.109 104.165 151.787 104.165C156.649 104.165 158.585 101.163 155.256 98.7876C153.563 97.5794 153.509 97.5982 151.368 100.144C150.174 101.564 148.62 102.725 147.915 102.725C146.532 102.725 143.761 105.516 143.761 106.909C143.761 107.42 142.733 107.762 141.198 107.762C138.942 107.762 138.532 107.489 137.766 105.476C137.288 104.218 136.872 101.758 136.842 100.008C136.794 97.2371 136.432 96.4667 134.024 94.0202L131.26 91.2125H134.885H138.509L140.767 96.6092C142.009 99.5774 143.183 102.006 143.376 102.006C143.569 102.006 144.21 100.987 144.802 99.7416C145.822 97.592 145.804 97.3366 144.445 94.702C141.221 88.4538 143.968 85.778 154.094 85.3033C158.864 85.0797 158.938 84.7371 159.737 84.7371C160.536 84.7371 160.271 84.7371 161.07 84.7371C161.737 84.7371 161.737 84.7371 161.737 84.7371C163.737 84.7371 162.509 84.4128 163.608 85.8551C164.32 86.7894 164.231 87.2242 163.064 88.4952C161.699 89.9817 161.588 89.9891 158.253 88.8157C156.375 88.1552 154.026 87.6147 153.032 87.6147C150.166 87.6147 147.155 89.0455 146.695 90.6255C146.158 92.4683 147.489 94.1565 148.103 92.4122C148.432 91.4801 149.394 91.2125 152.419 91.2125C154.56 91.2125 156.312 91.3788 156.312 91.5821C156.312 91.7853 155.94 92.6371 155.486 93.475C154.812 94.7186 154.827 95.0637 155.569 95.3541C157.487 96.1054 158.954 98.4718 158.954 100.815C158.954 104.426 157.048 105.892 151.792 106.323C148.378 106.603 147.36 106.95 147.196 107.89C147.049 108.729 147.903 109.539 149.997 110.548C151.654 111.346 153.009 112.484 153.009 113.076C153.009 114.771 151.875 115.097 151.494 113.511ZM161.266 108.368C160.176 107.972 158.887 107.511 158.401 107.344C157.761 107.123 157.987 106.432 159.227 104.827C160.167 103.611 160.936 102.144 160.936 101.568C160.936 99.8411 159.073 95.5299 158.327 95.5299C156.553 95.5299 157.939 94.1127 160.723 93.0791C164.249 91.7704 171.841 91.5616 174.6 92.6974C177.527 93.9019 180.093 96.9689 180.093 99.2623V101.286H171.457C163.693 101.286 162.843 101.41 163.037 102.507C163.155 103.178 164.252 104.363 165.473 105.14C167.363 106.342 168.009 106.428 169.812 105.718C172.755 104.559 178.964 104.605 178.618 105.784C177.861 108.365 166.087 110.119 161.266 108.368ZM172.041 97.0183C172.37 95.9421 167.904 93.9935 166.423 94.5671C164.863 95.1713 162.88 97.0401 163.2 97.6048C163.642 98.3847 171.788 97.8442 172.041 97.0183ZM97.1906 107.766C96.9452 107.334 97.2724 106.103 97.9177 105.032C99.4294 102.524 99.4603 97.0976 97.9762 94.7895C96.3235 92.2195 96.54 91.9321 100.128 91.9321C102.478 91.9321 103.57 92.2657 104.007 93.1169C104.572 94.2169 104.727 94.2169 106.169 93.1169C108.19 91.5745 113.27 91.5222 113.804 93.0382C114.482 94.9608 112.216 96.9076 109.799 96.4803C107.982 96.1591 107.386 96.4559 105.848 98.446C104.313 100.434 104.065 101.347 104.219 104.456L104.401 108.122L101.019 108.337C99.0716 108.461 97.4476 108.219 97.1906 107.766ZM115.537 107.528C112.505 106.325 110.751 104.141 110.281 100.981C109.905 98.4632 109.981 98.2805 111.225 98.7102C112.295 99.0803 112.899 98.6108 114.127 96.4543C114.98 94.9565 115.679 93.4218 115.681 93.0439C115.692 91.1556 125.369 90.6401 129.083 92.33C133.172 94.1902 135.173 96.7788 135.173 100.207C135.173 105.635 130.526 108.524 121.961 108.423C119.599 108.395 116.708 107.992 115.537 107.528ZM126.585 103.445C128.486 101.374 128.295 98.1263 126.166 96.3017C121.133 91.99 115.024 98.1058 119.351 103.123C121.262 105.339 124.706 105.492 126.585 103.445ZM182.736 107.546C181.035 106.605 180.497 103.964 181.646 102.194C182.645 100.654 181.48 96.5867 179.425 94.442C176.951 91.8608 176.944 91.2125 179.389 91.2125C180.983 91.2125 181.364 90.8801 181.536 89.3364C181.705 87.8219 182.382 87.1978 185.048 86.0989C186.864 85.3502 188.408 84.7374 188.478 84.7371C188.548 84.7369 188.697 86.1127 188.808 87.7946C189 90.6818 189.14 90.8729 191.307 91.2125C193.226 91.5134 193.602 91.8671 193.604 93.3712C193.605 94.9288 193.275 95.2001 191.143 95.3934L188.681 95.6168V99.387C188.681 103.471 189.459 104.884 191.709 104.884C193.074 104.884 194.31 107.148 193.454 108.081C192.735 108.864 184.361 108.446 182.736 107.546Z" fill="#99D4AD"/>
</svg>
